HIERARCHY
ROOT Pelvis
{
	OFFSET 0.000000 0.941512 0.000000
	CHANNELS 6 Xposition Yposition Zposition Zrotation Yrotation Xrotation 
	JOINT Pelvis_L_Hip
	{
		OFFSET 0.000000 0.000000 0.000000
		CHANNELS 3 Zrotation Yrotation Xrotation
		JOINT L_Hip
		{
			OFFSET 0.062321 -0.080322 -0.016990
			CHANNELS 3 Zrotation Yrotation Xrotation
			JOINT L_Knee
			{
				OFFSET 0.093051 -0.381305 -0.029784
				CHANNELS 3 Zrotation Yrotation Xrotation
				JOINT L_Ankle
				{
					OFFSET -0.010371 -0.431000 -0.033614
					CHANNELS 3 Zrotation Yrotation Xrotation
					End Site #name: L_Foot
					{
						OFFSET 0.069299 -0.038670 0.119418
					}
				}
			}
		}
	}
	JOINT Pelvis_R_Hip
	{
		OFFSET 0.000000 0.000000 0.000000
		CHANNELS 3 Zrotation Yrotation Xrotation
		JOINT R_Hip
		{
			OFFSET -0.055334 -0.094904 -0.002373
			CHANNELS 3 Zrotation Yrotation Xrotation
			JOINT R_Knee
			{
				OFFSET -0.064207 -0.384370 -0.019592
				CHANNELS 3 Zrotation Yrotation Xrotation
				JOINT R_Ankle
				{
					OFFSET 0.025418 -0.419734 -0.065953
					CHANNELS 3 Zrotation Yrotation Xrotation
					End Site #name: R_Foot
					{
						OFFSET -0.057233 -0.039888 0.132134
					}
				}
			}
		}
	}
	JOINT Pelvis_Spine1
	{
		OFFSET 0.000000 0.000000 0.000000
		CHANNELS 3 Zrotation Yrotation Xrotation
		JOINT Spine1
		{
			OFFSET -0.005562 0.124093 -0.043360
			CHANNELS 3 Zrotation Yrotation Xrotation
			JOINT Spine2
			{
				OFFSET 0.012244 0.139499 0.029894
				CHANNELS 3 Zrotation Yrotation Xrotation
				JOINT Spine3
				{
					OFFSET -0.002556 0.056561 0.009225
					CHANNELS 3 Zrotation Yrotation Xrotation
					JOINT Spine3_Neck
					{
						OFFSET 0.000000 0.000000 0.000000
						CHANNELS 3 Zrotation Yrotation Xrotation
						JOINT Neck
						{
							OFFSET -0.005205 0.217920 -0.024551
							CHANNELS 3 Zrotation Yrotation Xrotation
							End Site #name: Head
							{
								OFFSET 0.002365 0.091850 0.046637
							}
						}
					}
					JOINT Spine3_L_Collar
					{
						OFFSET 0.000000 0.000000 0.000000
						CHANNELS 3 Zrotation Yrotation Xrotation
						JOINT L_Collar
						{
							OFFSET 0.072225 0.116603 -0.009480
							CHANNELS 3 Zrotation Yrotation Xrotation
							JOINT L_Shoulder
							{
								OFFSET 0.115937 -0.058643 -0.021018
								CHANNELS 3 Zrotation Yrotation Xrotation
								JOINT L_Elbow
								{
									OFFSET 0.021994 -0.254722 -0.024492
									CHANNELS 3 Zrotation Yrotation Xrotation
									End Site #name: L_Wrist
									{
										OFFSET 0.048810 -0.240214 0.103329
									}
								}
							}
						}
					}
					JOINT Spine3_R_Collar
					{
						OFFSET 0.000000 0.000000 0.000000
						CHANNELS 3 Zrotation Yrotation Xrotation
						JOINT R_Collar
						{
							OFFSET -0.073372 0.120704 -0.024611
							CHANNELS 3 Zrotation Yrotation Xrotation
							JOINT R_Shoulder
							{
								OFFSET -0.108089 -0.054969 -0.020504
								CHANNELS 3 Zrotation Yrotation Xrotation
								JOINT R_Elbow
								{
									OFFSET -0.033684 -0.260739 0.009889
									CHANNELS 3 Zrotation Yrotation Xrotation
									End Site #name: R_Wrist
									{
										OFFSET -0.067980 -0.232763 0.118463
									}
								}
							}
						}
					}
				}
			}
		}
	}
}
MOTION
Frames: 10
Frame Time: 0.041667
-1.274698 0.961159 0.154063 -5.895190 -2.850286 1.952784 0.000000 0.000000 0.000000 6.305646 -2.044873 -8.524353 2.571582 -0.549758 7.552683 -4.092865 0.077961 7.160745 0.000000 0.000000 0.000000 -3.751009 2.254556 -14.848770 2.788054 0.365429 19.173534 -3.582005 -16.745982 6.146619 0.000000 0.000000 0.000000 5.389862 -2.004191 5.966523 -0.752484 0.082221 -0.772047 2.563123 2.403029 2.802117 0.000000 0.000000 0.000000 -3.965636 2.056768 1.100105 0.000000 0.000000 0.000000 14.170332 -9.103191 -3.402972 -14.285590 -0.446519 -8.943395 2.960711 2.887500 9.795333 0.000000 0.000000 0.000000 -19.117096 11.851650 -4.905312 13.838511 -1.756681 8.776281 -3.383859 -2.090327 1.523399 
-1.251010 0.963953 0.151647 -6.067929 -2.355217 2.343832 0.000000 0.000000 0.000000 5.266068 -2.140787 -8.989567 2.255516 -0.490141 7.215350 -4.093740 -0.340084 6.869989 0.000000 0.000000 0.000000 1.754092 2.896188 -16.061916 6.477179 -0.849217 21.500689 -5.963953 -20.327820 2.959048 0.000000 0.000000 0.000000 4.582468 -1.829448 6.254348 -0.549802 0.041205 -0.968476 2.653051 1.979270 2.194313 0.000000 0.000000 0.000000 -3.450267 1.783076 1.181583 0.000000 0.000000 0.000000 14.155115 -9.501945 -3.691644 -13.262513 -0.287238 -7.987890 2.030811 2.371305 8.536520 0.000000 0.000000 0.000000 -18.410532 11.434552 -4.629925 13.531773 -1.844382 9.231454 -2.468873 -1.528216 1.066446 
-1.231309 0.965992 0.150497 -6.095728 -2.283592 2.406556 0.000000 0.000000 0.000000 4.504213 -2.307099 -9.820767 1.541853 -0.435321 8.581602 -3.888351 -0.762664 6.257764 0.000000 0.000000 0.000000 8.341215 3.252022 -15.126836 6.706122 -0.940743 19.465864 -5.037065 -14.749237 -0.855281 0.000000 0.000000 0.000000 3.932046 -1.681459 6.513468 -0.463830 0.035040 -0.823454 2.634805 1.767615 1.573209 0.000000 0.000000 0.000000 -3.416020 1.766971 1.610978 0.000000 0.000000 0.000000 13.887115 -10.165801 -4.191437 -12.523699 -0.056411 -6.646598 2.030957 2.325565 8.257043 0.000000 0.000000 0.000000 -18.292419 11.559743 -4.720054 13.776660 -1.982212 9.777009 -2.142349 -1.248945 0.615840 
-1.212630 0.966285 0.151579 -5.258776 -2.786638 2.583073 0.000000 0.000000 0.000000 2.572580 -2.339332 -9.868265 1.353676 -0.412339 8.850334 -3.624918 -1.167260 5.601622 0.000000 0.000000 0.000000 13.196796 3.101119 -13.217660 3.512556 -0.023532 14.969866 -3.664073 -8.572039 -2.582774 0.000000 0.000000 0.000000 3.239216 -1.421275 6.032198 -0.694675 0.096052 -0.320463 2.276205 1.769133 0.791043 0.000000 0.000000 0.000000 -3.866734 2.017931 2.478902 0.000000 0.000000 0.000000 13.396089 -10.089234 -4.210105 -11.988990 0.116771 -5.578799 2.370448 2.548125 8.893620 0.000000 0.000000 0.000000 -18.363354 11.887182 -4.928566 14.263941 -2.143044 10.372887 -1.973649 -1.131112 0.488712 
-1.194423 0.964288 0.152583 -3.670404 -3.397925 3.437434 0.000000 0.000000 0.000000 0.222387 -2.581370 -10.776300 0.730989 -0.316077 9.142005 -3.561759 -1.802689 5.157445 0.000000 0.000000 0.000000 13.695864 3.023692 -12.897720 0.623502 0.604182 11.484307 -0.272908 -2.081288 0.835755 0.000000 0.000000 0.000000 2.832358 -1.137148 4.548709 -1.424248 0.240182 0.177114 1.582960 1.815153 0.177572 0.000000 0.000000 0.000000 -4.519959 2.377216 2.817148 0.000000 0.000000 0.000000 13.168280 -9.012330 -3.528349 -12.116690 0.117199 -5.574607 3.251134 3.036847 10.115512 0.000000 0.000000 0.000000 -18.496356 11.868151 -4.861618 14.571172 -2.169867 10.468983 -1.407475 -0.824564 0.401316 
-1.176525 0.962655 0.152211 -2.650277 -3.781987 3.943845 0.000000 0.000000 0.000000 -1.506274 -3.096488 -12.716593 -0.022542 -0.231937 11.565959 -3.137529 -1.545226 4.607859 0.000000 0.000000 0.000000 11.253227 2.707825 -12.372998 0.403467 0.475602 8.619055 0.921247 -2.918182 4.166852 0.000000 0.000000 0.000000 3.927006 -1.418554 4.490513 -2.403515 0.311269 -1.183299 0.779856 2.153694 0.933434 0.000000 0.000000 0.000000 -5.546544 2.888221 1.503309 0.000000 0.000000 0.000000 12.699107 -7.708881 -2.684497 -12.148041 0.117844 -5.643124 3.665152 3.190090 10.259070 0.000000 0.000000 0.000000 -19.026330 12.071273 -4.983497 14.684697 -2.188427 10.453083 -0.722491 -0.259535 -0.378879 
-1.159964 0.965450 0.149472 -2.427566 -3.712143 4.373249 0.000000 0.000000 0.000000 -1.756797 -4.068854 -16.589319 -1.349257 -0.004719 17.885694 -1.792875 -1.281774 2.429383 0.000000 0.000000 0.000000 9.651468 2.379737 -11.508967 0.574661 0.251627 5.705738 1.702213 -2.516227 5.606983 0.000000 0.000000 0.000000 5.346139 -1.845234 4.835875 -2.840947 0.339903 -1.736228 0.519662 2.619596 1.294052 0.000000 0.000000 0.000000 -6.701303 3.421869 -0.006274 0.000000 0.000000 0.000000 12.353411 -6.734643 -2.038825 -13.108082 0.043783 -6.242338 4.255675 3.411048 10.465847 0.000000 0.000000 0.000000 -19.833461 12.487826 -5.304907 14.465310 -2.145919 10.295990 -0.191865 0.182564 -0.963316 
-1.144949 0.968580 0.146318 -2.068108 -3.125797 4.437697 0.000000 0.000000 0.000000 -0.296052 -4.854501 -20.327294 -4.081234 0.809243 24.652240 -1.435429 -4.327034 0.120746 0.000000 0.000000 0.000000 8.386597 2.148478 -10.836778 0.216867 0.208599 3.932859 2.073860 -2.741980 6.664529 0.000000 0.000000 0.000000 5.268262 -1.936818 5.638431 -2.359782 0.226319 -2.405278 0.728433 2.941080 1.712370 0.000000 0.000000 0.000000 -7.153646 3.596012 -1.129711 0.000000 0.000000 0.000000 12.496230 -6.913157 -2.086272 -14.086706 0.150351 -5.938385 3.595294 3.106223 9.850921 0.000000 0.000000 0.000000 -20.393252 12.890329 -5.675115 14.160916 -2.175639 10.421172 -0.117347 0.398231 -1.567376 
-1.129980 0.970934 0.145382 -1.396596 -3.112426 4.409190 0.000000 0.000000 0.000000 1.495282 -4.919567 -21.458204 -4.232394 0.911086 26.548898 -1.120006 -4.457740 -0.481670 0.000000 0.000000 0.000000 6.650685 2.080364 -10.851644 0.054948 0.228633 3.770357 2.374536 -2.607806 7.230153 0.000000 0.000000 0.000000 4.658225 -1.775504 5.715947 -2.303298 0.234902 -2.144554 1.071708 3.178813 1.716915 0.000000 0.000000 0.000000 -7.029217 3.507209 -1.659711 0.000000 0.000000 0.000000 12.436094 -7.070076 -2.183307 -13.954742 0.261503 -5.365564 2.151679 2.521850 9.169194 0.000000 0.000000 0.000000 -20.361784 13.354313 -6.072240 13.626103 -2.144513 10.420382 0.279035 0.629304 -1.641519 
-1.114423 0.972122 0.145674 -1.107288 -3.439077 4.460767 0.000000 0.000000 0.000000 4.197011 -4.390417 -20.371396 -1.995756 0.180088 23.327097 -1.926260 0.816097 3.912155 0.000000 0.000000 0.000000 5.185661 2.163488 -11.500256 0.228461 0.254553 4.679113 2.376969 -2.526672 7.144005 0.000000 0.000000 0.000000 4.936980 -1.813117 5.440627 -2.924953 0.337874 -1.946001 1.093680 3.318992 1.456770 0.000000 0.000000 0.000000 -6.560979 3.291853 -1.248664 0.000000 0.000000 0.000000 12.656251 -6.297278 -1.651567 -14.025128 0.271173 -5.307991 1.698048 2.297886 8.754446 0.000000 0.000000 0.000000 -20.111714 13.371867 -6.083696 13.605093 -1.965335 9.739428 0.762754 0.765438 -1.245785 
